<?xml version="1.0" encoding="utf-8"?>
<!-- Generator: Adobe Illustrator 28.1.0, SVG Export Plug-In . SVG Version: 6.00 Build 0)  -->
<svg version="1.0" id="레이어_1" xmlns="http://www.w3.org/2000/svg" xmlns:xlink="http://www.w3.org/1999/xlink" x="0px"
	 y="0px" viewBox="0 0 105.8 13.79" style="enable-background:new 0 0 105.8 13.79;" xml:space="preserve">
<style type="text/css">
	.st0{fill:#00A954;}
	.st1{fill:#FFFFFF;}
</style>
<g>
	<g>
		<g>
			<path class="st0" d="M100.91,4.43V2.29h0.66V1.58h3.23v4.41c0,0.81-0.08,1.63-1.14,1.63h-2.08V4.43H100.91z M99.14,5.45
				c-0.51,0.15-1.17,0.24-2.01,0.21L97.1,6.07c2.61,0.2,3.86-1.22,3.86-1.22l0.35,2.37c-0.44,0.23-1.52,0.61-3.72,0.61
				c-2.25,0-2.86-0.5-2.89-0.6V4.2c0,0,0.97,0.01,1.74-0.02c0.98-0.05,1.85-0.24,1.85-0.24V3.52c0,0-0.98,0.2-1.94,0.25
				c-0.97,0.05-1.65-0.01-1.65-0.01V1.75h5.81v2.8C100.5,4.75,100.05,5.19,99.14,5.45 M97.99,9.33h3.59V8.25h3.2v2.29
				c0,1.13-0.27,1.78-1.51,1.78h-8.59V8.25h3.31V9.33z M97.99,10.99h3.59V10.5h-3.59V10.99z"/>
			<g>
				<g>
					<path class="st0" d="M92.64,5.65c0.48-0.38,0.91-1.06,0.94-1.76c0.03-0.7,0.04-1.34,0.04-2.32H83.8v1.89l5.97,0h1.06
						c0,0-0.06,2.18-1.09,2.18c-0.01,0.05-6.2,0-6.2,0v1.97h9.03c0.69,0,1.06-0.46,1.06-0.88V5.65H92.64z"/>
					<polygon class="st0" points="84.06,5.04 90.85,5.04 90.91,4.03 84.06,4.03 					"/>
				</g>
				<path class="st0" d="M93.64,10.09c-0.05,0.02-2.49,1.32-6.76,1.39v-0.45c5.04-0.09,6.75-1.43,6.75-1.48V8.86
					c0-0.56-0.4-0.8-0.97-0.8h-9.13v1.51c0,0,1.77,0.04,3.33-0.06c1.56-0.1,2.47-0.32,2.47-0.32v0.45c0,0-0.8,0.21-2.5,0.33
					c-1.7,0.12-3.3,0.06-3.3,0.06v1.84c0,1.49,10.11,0.99,10.11,0.2V10.09z"/>
			</g>
		</g>
	</g>
	<g>
		<g>
			<g>
				<path class="st1" d="M34.44,8.42c0,0,1,0.21,0.86,1.05c-0.2,1.28-1.24,1.46-2.2,1.05"/>
				<path d="M33.98,10.85c-0.29,0-0.61-0.07-0.93-0.2c-0.07-0.03-0.11-0.11-0.08-0.19c0.03-0.07,0.11-0.11,0.19-0.08
					c0.54,0.23,1.05,0.24,1.42,0.04c0.32-0.18,0.51-0.51,0.59-0.98c0.11-0.69-0.72-0.88-0.75-0.88c-0.08-0.02-0.13-0.09-0.11-0.17
					c0.02-0.08,0.09-0.13,0.17-0.11c0.39,0.08,1.1,0.44,0.98,1.21c-0.09,0.56-0.34,0.97-0.73,1.19
					C34.5,10.79,34.25,10.85,33.98,10.85z"/>
			</g>
			<g>
				<path class="st1" d="M25.14,8.42c0,0-0.95,0.2-0.86,1.05c0.09,0.84,0.97,1.7,2.2,1.05"/>
				<path d="M25.64,10.89c-0.24,0-0.48-0.06-0.69-0.17c-0.45-0.24-0.76-0.71-0.82-1.24c-0.08-0.77,0.6-1.12,0.98-1.2
					c0.08-0.02,0.15,0.03,0.17,0.11c0.02,0.08-0.03,0.15-0.11,0.17c-0.03,0.01-0.82,0.19-0.75,0.89c0.04,0.42,0.31,0.82,0.67,1.01
					c0.27,0.14,0.72,0.25,1.33-0.07c0.07-0.03,0.16-0.01,0.19,0.06c0.04,0.07,0.01,0.16-0.06,0.19
					C26.24,10.81,25.93,10.89,25.64,10.89z"/>
			</g>
			<g>
				<path class="st1" d="M34.6,7.77c-0.13,4.4-2.27,5.72-4.58,5.87c-2.8,0.18-4.88-2.71-5.01-6.09c-0.14-3.57,2-5.2,4.72-5.2
					S34.71,4.2,34.6,7.77z"/>
				<path d="M29.78,13.79c-1,0-1.95-0.38-2.75-1.11c-1.27-1.15-2.07-3.06-2.15-5.13c-0.06-1.67,0.37-3.05,1.27-3.98
					c0.86-0.89,2.1-1.36,3.59-1.36c1.43,0,2.72,0.51,3.61,1.43c0.97,1,1.45,2.43,1.4,4.14c-0.11,3.79-1.7,5.81-4.71,6
					C29.95,13.78,29.87,13.79,29.78,13.79z M29.74,2.5c-1.41,0-2.58,0.44-3.39,1.28c-0.85,0.89-1.25,2.15-1.19,3.77
					c0.08,1.99,0.85,3.83,2.06,4.92c0.82,0.74,1.79,1.09,2.8,1.03c2.84-0.18,4.34-2.11,4.44-5.73l0,0c0.05-1.63-0.41-2.99-1.32-3.93
					C32.3,2.97,31.1,2.5,29.74,2.5z"/>
			</g>
			<path d="M29.65,12.19c-0.16,0-0.33-0.02-0.51-0.06c-0.06-0.02-0.11-0.08-0.09-0.15c0.02-0.07,0.08-0.1,0.15-0.09
				c0.72,0.17,1.29-0.13,1.3-0.14c0.06-0.03,0.13-0.01,0.16,0.05c0.03,0.06,0.01,0.13-0.05,0.16C30.6,11.98,30.21,12.19,29.65,12.19
				z"/>
			<ellipse cx="27.52" cy="8.44" rx="0.48" ry="0.88"/>
			<ellipse cx="31.78" cy="8.44" rx="0.48" ry="0.88"/>
			<path d="M26.55,6c-0.74,0.32-0.88,0.37-1.8,0.85c-0.37,1.38,0.64,3.99,0.83,3.64c0.19-0.34-0.13-2.02,0.93-3.76
				c0,0,1.13-0.06,1.95,0.19c0.11,0.03,0.15-0.41-0.15-0.99c0.09,0.04,0.32,0.46,0.78,1.2c0.34,0.12,0.69,0.14,1.01,0.25
				c0.27,0.09-0.11-1.09-0.11-1.09s0.58,0,0.98,0.82c0.49,0.12,0.87,0.23,1.15,0.29c0.4,0.09-0.38-0.9-0.38-0.9s1.05,0.25,1.88,1.71
				c0.57,1.01,0.35,2.74,0.46,2.71c0.34-0.1,0.76-1.62,0.82-2.51c0.06-0.89,0.04-1.51,0.04-1.51s-0.44-0.21-2.21-1.03
				C31.77,5.44,27.88,5.42,26.55,6z"/>
			<path d="M29.94,10.08c-0.16,0-0.38-0.03-0.53-0.17c-0.13-0.12-0.18-0.3-0.16-0.52c0.03-0.24,0.12-0.42,0.28-0.52
				c0.26-0.17,0.58-0.08,0.6-0.07c0.07,0.02,0.1,0.09,0.08,0.15c-0.02,0.07-0.09,0.1-0.15,0.08c0,0-0.23-0.06-0.39,0.04
				c-0.1,0.06-0.15,0.18-0.17,0.35c-0.02,0.14,0.01,0.24,0.08,0.31c0.13,0.12,0.41,0.11,0.5,0.1c0.06-0.01,0.13,0.03,0.14,0.1
				c0.01,0.07-0.03,0.13-0.1,0.14C30.12,10.07,30.04,10.08,29.94,10.08z"/>
		</g>
		<g>
			<g>
				
					<ellipse transform="matrix(0.0443 -0.999 0.999 0.0443 27.2092 31.1135)" class="st1" cx="29.87" cy="1.33" rx="0.27" ry="0.66"/>
				<path d="M29.93,1.75c-0.03,0-0.05,0-0.08,0c-0.38-0.02-0.79-0.16-0.78-0.45c0-0.05,0.02-0.13,0.1-0.2
					c0.13-0.12,0.41-0.19,0.72-0.18c0.38,0.02,0.79,0.16,0.78,0.45c0,0.05-0.02,0.13-0.1,0.2C30.45,1.68,30.2,1.75,29.93,1.75z
					 M29.81,1.21c-0.28,0-0.44,0.08-0.46,0.11c0.02,0.02,0.2,0.13,0.51,0.14c0.3,0.01,0.47-0.06,0.51-0.1
					c-0.04-0.04-0.21-0.14-0.51-0.15C29.85,1.21,29.83,1.21,29.81,1.21z M30.38,1.37L30.38,1.37L30.38,1.37z"/>
			</g>
			<g>
				<path class="st1" d="M25.01,6.98c-0.1,0.05-0.33,0.07-0.33-0.04c-0.01-0.53,0.1-1.82,0.21-2.42c0.14-0.78,0.39-2.01,1.95-2.56
					c1.65-0.58,2.52-0.57,3.26-0.56c0.72,0.02,3.89,0.21,4.36,2.14c0.3,1.22,0.4,2.58,0.44,3.22c0.01,0.13-0.15,0.21-0.25,0.12
					c-0.42-0.34-1.26-0.94-1.94-0.85C31.47,6.2,28.23,5.11,25.01,6.98z"/>
				<path d="M24.82,7.17c-0.06,0-0.13-0.01-0.18-0.04c-0.07-0.04-0.11-0.11-0.11-0.18c-0.01-0.54,0.1-1.85,0.21-2.45
					c0.13-0.73,0.37-2.08,2.04-2.67c1.7-0.6,2.59-0.58,3.31-0.56c0.66,0.01,3.99,0.19,4.5,2.25c0.3,1.2,0.4,2.55,0.44,3.24
					c0.01,0.12-0.06,0.23-0.16,0.28c-0.11,0.05-0.23,0.04-0.32-0.04c-0.34-0.28-1.19-0.91-1.83-0.82c-0.34,0.05-0.81,0-1.4-0.05
					c-1.56-0.15-3.91-0.36-6.24,0.98C25.02,7.14,24.92,7.17,24.82,7.17z M29.73,1.54c-0.64,0-1.48,0.07-2.86,0.55
					c-1.51,0.53-1.72,1.73-1.85,2.45c-0.1,0.56-0.21,1.79-0.2,2.34c0.04,0,0.09-0.01,0.12-0.03l0,0c2.41-1.39,4.81-1.17,6.41-1.02
					c0.55,0.05,1.02,0.1,1.33,0.05c0.73-0.1,1.6,0.51,2.05,0.88c-0.02-0.69-0.13-2.01-0.42-3.2c-0.47-1.89-3.84-2.02-4.23-2.03
					C29.97,1.54,29.85,1.54,29.73,1.54z"/>
			</g>
			<g>
				<path class="st1" d="M29.42,1.4c0,0-1.89,0.39-2.02,2.15c-0.13,1.76-0.15,2.93-0.15,2.93"/>
				<path d="M27.25,6.62C27.25,6.62,27.25,6.62,27.25,6.62c-0.08,0-0.14-0.07-0.14-0.15c0-0.01,0.03-1.2,0.15-2.94
					c0.13-1.84,2.11-2.27,2.13-2.28c0.08-0.02,0.15,0.03,0.17,0.11c0.02,0.08-0.03,0.15-0.11,0.17c-0.07,0.02-1.78,0.39-1.9,2.02
					c-0.13,1.73-0.15,2.91-0.15,2.92C27.39,6.55,27.32,6.62,27.25,6.62z"/>
			</g>
			<g>
				<path class="st1" d="M30.43,1.42c0,0,1.3,0.2,1.6,1.51c0.29,1.29,0.3,3.27,0.3,3.27"/>
				<path d="M32.33,6.35c-0.08,0-0.14-0.06-0.14-0.14c0-0.02-0.01-1.98-0.29-3.24c-0.27-1.2-1.43-1.4-1.48-1.4
					c-0.08-0.01-0.13-0.08-0.12-0.16c0.01-0.08,0.08-0.13,0.16-0.12c0.01,0,1.4,0.23,1.71,1.62c0.29,1.29,0.3,3.22,0.3,3.3
					C32.47,6.28,32.41,6.35,32.33,6.35L32.33,6.35z"/>
			</g>
		</g>
		<g>
			<path class="st1" d="M24.68,7.05c-0.03,0.04,0.05,0.08,0.12,0.06c0.87-0.32,3.99-1.19,7.67-0.63c1.1,0.17,2.43,0.64,2.43,0.64
				s1.01-0.92,0.49-1.5c-1.12-1.25-7.53-1.31-9.03-0.37C25.56,5.75,24.86,6.75,24.68,7.05z"/>
			<path d="M34.93,7.27l-0.08-0.03c-0.01,0-1.32-0.46-2.4-0.63c-4.16-0.64-7.46,0.57-7.6,0.62c-0.1,0.04-0.22,0.01-0.28-0.06
				c-0.05-0.06-0.05-0.14-0.01-0.2l0,0c0.03-0.05,0.79-1.26,1.73-1.85c1.54-0.97,8.05-0.89,9.21,0.4c0.6,0.67-0.45,1.66-0.5,1.7
				L34.93,7.27z M24.8,7.12L24.8,7.12L24.8,7.12L24.8,7.12z M29.99,6.14c0.78,0,1.62,0.05,2.5,0.19c0.96,0.15,2.06,0.51,2.37,0.61
				c0.19-0.2,0.77-0.85,0.42-1.24c-1.07-1.19-7.41-1.25-8.84-0.34c-0.66,0.42-1.23,1.16-1.49,1.54C25.55,6.7,27.47,6.14,29.99,6.14z
				"/>
		</g>
	</g>
	<g>
		<g>
			<path class="st0" d="M12.8,7.82V5.84h10.09v1.21c0,0,0.07,0.77-1.06,0.77h-2.43v0.42h-3.14V7.82H12.8z M12.91,3.53
				c0-0.72,0.2-1.22,0.61-1.51c0.41-0.29,0.95-0.44,1.64-0.44h5.34c0.73,0,1.29,0.15,1.67,0.44c0.39,0.29,0.58,0.8,0.58,1.51
				c0,0.69-0.2,1.18-0.6,1.46c-0.4,0.28-0.95,0.43-1.65,0.43h-5.34c-0.68,0-1.23-0.14-1.64-0.43C13.12,4.71,12.91,4.22,12.91,3.53
				 M19.89,3.71V3.29h-4.16v0.43H19.89z"/>
			<path class="st0" d="M22.88,9.9c-0.05,0.02-2.48,1.26-6.75,1.32v-0.38c5.03-0.09,6.74-1.36,6.74-1.41V8.98
				c0-0.53-0.39-0.76-0.97-0.76h-9.12v1.23c0,0,1.76,0.04,3.32-0.06c1.56-0.1,2.47-0.31,2.47-0.31v0.37c0,0-0.79,0.2-2.49,0.31
				c-1.7,0.11-3.3,0.06-3.3,0.06v2.02c0,1.42,10.09,0.95,10.09,0.19V9.9z"/>
			<path class="st0" d="M5.94,6.95c0.14-0.51,0.32-1.56,0.38-2.42c0.06-0.85,0.09-1.72,0.09-2.6H2.94c0,0.9-0.02,2.04-0.06,2.67
				C2.84,5.24,2.76,5.77,2.63,6.2C2.51,6.63,2.32,7,2.08,7.3C1.83,7.59,1.3,7.97,0.88,8.21l1.07,3.19c1.52-0.12,2.69-1.53,3.01-2.16
				C4.97,9.25,5.59,8.25,5.94,6.95z"/>
			<polygon class="st0" points="5.66,6.76 8.79,8.76 7.18,11.09 4.24,8.97 			"/>
			<g>
				<path class="st0" d="M11.73,1.6h-3.2v10.76h1.89c0,0,1.31,0,1.31-1.59V1.6z"/>
				<rect x="7.56" y="3.86" class="st0" width="1.45" height="2.48"/>
			</g>
		</g>
	</g>
	<g>
		<path d="M72.07,8.16c0.28,1.47-0.45,3.47-0.03,3.67c0.59,0.29,0.84-1.2,0.84-1.2s-0.09,1.11-0.71,1.86
			c-0.37,0.45,0.34,0.92,0.84,0.29c0.6-0.75,0.48-1.11,0.48-1.11s0.15,1.52,0.92,0.43s-1.45-2.66-1.45-2.66L72.07,8.16z"/>
		<g>
			<path class="st1" d="M72.31,6.55c0,0-0.74-0.26-0.67,0.88s0.97,2.49,1.73,1.94"/>
			<path d="M73.01,9.62c-0.12,0-0.23-0.03-0.35-0.09c-0.57-0.28-1.09-1.22-1.14-2.1c-0.03-0.45,0.06-0.77,0.28-0.93
				c0.25-0.19,0.55-0.08,0.56-0.08c0.07,0.02,0.1,0.1,0.08,0.16c-0.02,0.07-0.1,0.1-0.16,0.08l0,0c0,0-0.19-0.06-0.33,0.04
				c-0.14,0.1-0.2,0.35-0.17,0.71c0.05,0.79,0.5,1.65,1,1.89c0.19,0.09,0.37,0.08,0.54-0.04c0.06-0.04,0.14-0.03,0.18,0.03
				c0.04,0.06,0.03,0.14-0.03,0.18C73.32,9.57,73.17,9.62,73.01,9.62z"/>
		</g>
		<path d="M81.74,8.01c-0.28,1.47,0.21,3.28-0.21,3.49c-0.59,0.29-0.84-1.2-0.84-1.2s0.09,1.11,0.71,1.86
			c0.37,0.45-0.34,0.92-0.84,0.29c-0.6-0.75-0.48-1.11-0.48-1.11s-0.15,1.52-0.92,0.43s1.45-2.66,1.45-2.66L81.74,8.01z"/>
		<g>
			<path class="st1" d="M81.18,6.55c0,0,0.74-0.26,0.67,0.88s-0.97,2.49-1.73,1.94"/>
			<path d="M80.48,9.62c-0.15,0-0.3-0.05-0.44-0.15c-0.06-0.04-0.07-0.12-0.03-0.18c0.04-0.06,0.12-0.07,0.18-0.03
				c0.17,0.12,0.34,0.13,0.54,0.04c0.49-0.24,0.95-1.1,1-1.89c0.02-0.36-0.04-0.6-0.18-0.71c-0.14-0.1-0.32-0.04-0.32-0.04
				c-0.07,0.02-0.14-0.01-0.16-0.08s0.01-0.14,0.08-0.16c0.01,0,0.31-0.11,0.56,0.08c0.21,0.16,0.3,0.47,0.28,0.93
				c-0.05,0.88-0.57,1.83-1.14,2.1C80.72,9.59,80.6,9.62,80.48,9.62z"/>
		</g>
		<g>
			<path class="st1" d="M81.18,6.92c0,3.18-1.58,5.26-4.39,5.24c-3.36-0.02-4.39-2.45-4.39-5.24c0-3.18,1.78-5.01,4.2-5.01
				S81.18,3.74,81.18,6.92z"/>
			<path d="M76.82,12.29c-0.01,0-0.02,0-0.03,0c-2.95-0.01-4.51-1.87-4.51-5.37c0-3.12,1.7-5.14,4.33-5.14c3.08,0,4.7,2.58,4.7,5.14
				c0,1.81-0.5,3.27-1.45,4.21C79.09,11.89,78.04,12.29,76.82,12.29z M76.61,2.04c-2.47,0-4.07,1.92-4.07,4.88
				c0,2.33,0.74,5.1,4.26,5.12c0.01,0,0.02,0,0.03,0c1.17,0,2.13-0.37,2.86-1.09c0.9-0.89,1.37-2.29,1.37-4.03
				C81.05,4.49,79.53,2.04,76.61,2.04z"/>
		</g>
		<path d="M76.51,10.82c-0.79,0-1.3-0.24-1.33-0.26c-0.05-0.03-0.08-0.09-0.05-0.14s0.09-0.08,0.14-0.05
			c0.01,0.01,1.17,0.54,2.69-0.05c0.05-0.02,0.12,0.01,0.14,0.06c0.02,0.06-0.01,0.12-0.06,0.14
			C77.46,10.75,76.94,10.82,76.51,10.82z"/>
		<ellipse cx="74.44" cy="7.5" rx="0.43" ry="0.78"/>
		<ellipse cx="78.42" cy="7.54" rx="0.43" ry="0.78"/>
		<g>
			<path class="st1" d="M76.82,8.3c0,0,0.13-0.59-0.47-0.6c-0.64-0.01-0.49,0.62-0.49,0.62"/>
			<path d="M75.87,8.43c-0.05,0-0.09-0.03-0.1-0.08c0-0.01-0.08-0.34,0.1-0.56c0.11-0.13,0.28-0.2,0.49-0.19
				c0.21,0,0.37,0.07,0.47,0.2c0.17,0.22,0.11,0.52,0.1,0.53c-0.01,0.06-0.07,0.09-0.13,0.08c-0.06-0.01-0.1-0.07-0.08-0.13
				c0,0,0.04-0.22-0.06-0.35c-0.06-0.08-0.16-0.11-0.3-0.12c-0.14,0-0.26,0.04-0.32,0.11c-0.11,0.14-0.06,0.37-0.06,0.37
				c0.01,0.06-0.02,0.12-0.08,0.13C75.89,8.43,75.88,8.43,75.87,8.43z"/>
		</g>
		<path d="M73.67,3.62c-0.15,0.64,0.57,1.2,0.92,1.21c1.09,0.02,1.56-1.73,1.56-1.73s-0.06,2.41,0.98,2.54s1.01-2.03,1.01-2.03
			S78.02,5.11,79,5.08s1.12-1.97,1.15-1.45c0.03,0.52,0.25,3.11,0.84,3.12c0.42,0.01,0.64-0.8,0.63-1.98
			c-0.01-1.38-0.63-2.28-0.63-2.28s-1.16-1.82-3.94-1.97c-2.78-0.15-4.35,1.68-4.78,2.93c-0.33,0.94-0.19,2.46,0.03,3.14
			C72.51,7.27,73.67,3.62,73.67,3.62z"/>
		<g>
			<path d="M72.22,7.63c0,0,0.35,0.24,0.47-0.16c0,0,0.94,0.58,1.38-0.28c0,0,1.42,0.57,2.28-0.74c0,0-0.49-0.36-0.03-1.84
				c0,0,0.88,2.92,3.48,2.4c0,0,0.67,1.38,1.82,0.21c0,0-0.88-2.07-0.93-2.88c-0.06-0.81-1.75-1.84-4.26-1.8
				c-2.01,0.03-3.67,0.98-4.28,3C72.15,5.55,71.94,6.63,72.22,7.63z"/>
			<path d="M72.44,7.79c-0.13,0-0.25-0.07-0.26-0.08c-0.02-0.01-0.03-0.03-0.03-0.05c-0.28-1.01-0.08-2.08-0.07-2.12
				c0.58-1.92,2.17-3.03,4.36-3.07c0.05,0,0.1,0,0.15,0c2.4,0,4.13,0.98,4.2,1.88c0.06,0.79,0.92,2.83,0.93,2.85
				c0.01,0.03,0.01,0.07-0.02,0.09c-0.37,0.38-0.74,0.54-1.09,0.48c-0.46-0.08-0.74-0.5-0.83-0.66c-2.14,0.39-3.14-1.53-3.42-2.22
				c-0.31,1.18,0.06,1.5,0.07,1.5c0.03,0.03,0.04,0.08,0.02,0.11c-0.78,1.19-2,0.89-2.31,0.8c-0.13,0.22-0.3,0.36-0.52,0.42
				c-0.35,0.1-0.7-0.04-0.86-0.12c-0.04,0.09-0.1,0.15-0.18,0.18C72.51,7.78,72.47,7.79,72.44,7.79z M72.29,7.58
				c0.05,0.02,0.13,0.06,0.2,0.03c0.05-0.02,0.09-0.07,0.12-0.16c0.01-0.03,0.03-0.05,0.05-0.06c0.02-0.01,0.05-0.01,0.07,0.01
				c0,0,0.43,0.26,0.81,0.15c0.19-0.05,0.34-0.19,0.45-0.4c0.02-0.04,0.07-0.05,0.11-0.04c0.05,0.02,1.32,0.51,2.14-0.65
				c-0.13-0.16-0.38-0.65,0-1.87c0.01-0.04,0.04-0.06,0.08-0.06h0c0.04,0,0.07,0.02,0.08,0.06c0,0.01,0.22,0.72,0.75,1.37
				c0.7,0.85,1.58,1.18,2.63,0.97c0.04-0.01,0.08,0.01,0.09,0.05c0,0.01,0.27,0.55,0.74,0.62c0.28,0.04,0.59-0.09,0.9-0.39
				c-0.14-0.34-0.87-2.1-0.92-2.85c-0.05-0.73-1.6-1.72-4.03-1.72c-0.05,0-0.1,0-0.15,0c-2.14,0.04-3.63,1.08-4.2,2.94
				C72.23,5.58,72.03,6.62,72.29,7.58z"/>
		</g>
		<g>
			<path class="st1" d="M72.27,5.33c0,0,0.3-4.74,4.57-4.62c2.46,0.07,3.83,1.37,4.52,4.67l0.38,0.07c0,0-0.02-5.21-4.95-5.21
				s-4.95,5.13-4.95,5.13L72.27,5.33z"/>
			<path d="M81.74,5.58c-0.01,0-0.02,0-0.02,0l-0.38-0.07c-0.05-0.01-0.09-0.05-0.1-0.1c-0.67-3.17-1.94-4.49-4.4-4.56
				c-0.05,0-0.1,0-0.15,0c-3.94,0-4.28,4.45-4.28,4.5c0,0.06-0.05,0.11-0.11,0.12l-0.44,0.05c-0.04,0-0.07-0.01-0.1-0.03
				s-0.04-0.06-0.04-0.1c0-0.05,0.08-5.26,5.08-5.26c5.01,0,5.08,5.28,5.08,5.34c0,0.04-0.02,0.08-0.05,0.1
				C81.8,5.57,81.77,5.58,81.74,5.58z M72.27,5.33L72.27,5.33L72.27,5.33z M81.46,5.27l0.14,0.03c-0.02-0.38-0.13-1.4-0.61-2.4
				c-0.8-1.67-2.22-2.52-4.21-2.52c-1.99,0-3.41,0.84-4.21,2.49c-0.48,1-0.59,2-0.61,2.37l0.19-0.02c0.08-0.71,0.7-4.63,4.52-4.63
				c0.05,0,0.11,0,0.17,0C79.38,0.66,80.77,2.06,81.46,5.27z"/>
		</g>
		<g>
			<g>
				<path class="st1" d="M72.68,9.75c-0.49,0.13-0.81-0.09-0.81-0.09s-0.43-1.87-0.43-2.2c0-0.4,0.4-2.11,0.4-2.11
					s0.35-0.19,0.79-0.06C73.16,5.45,73.23,9.61,72.68,9.75z"/>
				<path d="M72.37,9.94c-0.36,0-0.58-0.15-0.6-0.16c-0.03-0.02-0.06-0.06-0.06-0.09c-0.04-0.19-0.43-1.89-0.44-2.23
					c0-0.41,0.38-2.07,0.4-2.14c0.01-0.04,0.04-0.08,0.08-0.1c0.02-0.01,0.41-0.22,0.91-0.07c0.58,0.17,0.55,2.52,0.55,2.78
					c-0.02,1.23-0.19,1.9-0.5,1.98l0,0C72.59,9.93,72.48,9.94,72.37,9.94z M72,9.55c0.1,0.05,0.32,0.12,0.63,0.04
					c0.11-0.08,0.27-0.73,0.27-1.93c0-1.31-0.2-2.15-0.33-2.23c-0.27-0.08-0.5-0.02-0.61,0.02c-0.12,0.52-0.38,1.7-0.37,1.99
					C71.59,7.68,71.83,8.81,72,9.55z"/>
			</g>
			<g>
				<path class="st1" d="M71.87,9.66c-0.66,0.15-1.27-0.84-1.27-2.21c0-1.35,0.59-2.27,1.23-2.09C72.39,5.5,72.43,9.52,71.87,9.66z"
					/>
				<path d="M71.73,9.83c-0.18,0-0.36-0.07-0.52-0.2c-0.47-0.38-0.77-1.22-0.77-2.19c0-0.94,0.28-1.74,0.74-2.09
					c0.21-0.16,0.45-0.22,0.69-0.15c0.58,0.16,0.56,2.39,0.55,2.64c-0.02,0.85-0.12,1.88-0.52,1.97l0,0
					C71.84,9.82,71.79,9.83,71.73,9.83z M71.87,9.66L71.87,9.66L71.87,9.66z M71.87,9.66L71.87,9.66L71.87,9.66z M71.68,5.49
					c-0.1,0-0.21,0.04-0.31,0.12C71,5.89,70.75,6.61,70.75,7.44c0,0.87,0.25,1.63,0.65,1.94c0.14,0.11,0.28,0.15,0.42,0.12
					c0.11-0.06,0.28-0.69,0.29-1.83c0-1.28-0.19-2.1-0.33-2.17C71.75,5.49,71.71,5.49,71.68,5.49z"/>
			</g>
		</g>
		<g>
			<g>
				<path class="st1" d="M80.77,9.46c0.49,0.13,0.81-0.09,0.81-0.09s0.43-1.87,0.43-2.2c0-0.4-0.4-2.11-0.4-2.11S81.27,4.87,80.82,5
					C80.29,5.16,80.22,9.32,80.77,9.46z"/>
				<path d="M81.07,9.66c-0.1,0-0.22-0.01-0.34-0.04l0,0c-0.31-0.08-0.48-0.75-0.5-1.98c0-0.27-0.03-2.61,0.55-2.78
					c0.5-0.15,0.9,0.07,0.91,0.07c0.04,0.02,0.07,0.06,0.08,0.1c0.02,0.07,0.4,1.73,0.4,2.14c0,0.34-0.39,2.04-0.44,2.23
					c-0.01,0.04-0.03,0.07-0.06,0.09C81.66,9.51,81.43,9.66,81.07,9.66z M80.81,9.31c0.31,0.08,0.53,0,0.63-0.04
					c0.17-0.75,0.41-1.87,0.41-2.1c0-0.3-0.25-1.47-0.37-1.99c-0.1-0.04-0.34-0.1-0.61-0.02c-0.13,0.08-0.32,0.92-0.32,2.23
					C80.54,8.58,80.7,9.24,80.81,9.31z M80.82,9.31L80.82,9.31L80.82,9.31L80.82,9.31z"/>
			</g>
			<g>
				<path class="st1" d="M81.58,9.37c0.66,0.15,1.27-0.84,1.27-2.21c0-1.35-0.59-2.27-1.23-2.09C81.06,5.22,81.01,9.24,81.58,9.37z"
					/>
				<path d="M81.71,9.54c-0.06,0-0.11-0.01-0.17-0.02l0,0c-0.41-0.09-0.51-1.13-0.52-1.98c0-0.25-0.03-2.48,0.55-2.63
					c0.24-0.06,0.48-0.01,0.69,0.15c0.46,0.35,0.74,1.15,0.74,2.09c0,0.97-0.29,1.81-0.77,2.19C82.07,9.48,81.89,9.54,81.71,9.54z
					 M81.62,9.22c0.14,0.03,0.28-0.01,0.42-0.12c0.4-0.31,0.65-1.08,0.65-1.94c0-0.83-0.24-1.56-0.62-1.84
					c-0.14-0.1-0.28-0.14-0.42-0.1c-0.13,0.07-0.33,0.88-0.33,2.16C81.34,8.53,81.5,9.16,81.62,9.22z"/>
			</g>
		</g>
	</g>
	<g>
		<g>
			<path class="st0" d="M58.79,4.92V2.01h5.99c0,1.32-0.05,2.45-0.14,3.41c-0.09,0.96-0.26,1.77-0.49,2.42
				c-0.24,0.65-0.57,1.18-1.01,1.59c-0.44,0.4-1,0.7-1.69,0.9c-0.69,0.19-1.65,0.31-2.66,0.34V7.54c0.56,0,1.38-0.07,1.75-0.21
				c0.37-0.14,0.66-0.34,0.88-0.59c0.22-0.25,0.37-0.53,0.47-0.84c0.1-0.31,0.15-0.64,0.16-0.98H58.79z"/>
			<g>
				<path class="st0" d="M46.13,9.72c-0.04,0.03-2.38,1.41-6.47,1.47v-0.48c4.83-0.1,6.46-1.52,6.46-1.57V8.27
					c0-0.6-0.38-0.85-0.93-0.85h-8.74v1.61c0,0,1.69,0.04,3.19-0.07c1.5-0.11,2.37-0.34,2.37-0.34v0.47c0,0-0.76,0.22-2.39,0.35
					c-1.63,0.13-3.16,0.07-3.16,0.07v2.31c0,1.58,9.68,1.06,9.68,0.21V9.72z"/>
				<path class="st0" d="M42.43,1.97h-2.7v1.2h-0.55v-1.2h-2.7v5.05h5.95V1.97z M39.73,5.91h-0.55V4.62h0.55V5.91z"/>
				<path class="st0" d="M46.05,5.41h0.78V3.22h-0.78V1.58h-3.2v5.45h2.1c0,0,1.1,0.06,1.1-1.05V5.41z"/>
			</g>
			<g>
				<g>
					<path class="st0" d="M68.4,1.59h-3.2v10.76h1.89c0,0,1.31,0,1.31-1.59V1.59z"/>
				</g>
				<rect x="67.77" y="5.01" class="st0" width="1.61" height="2.48"/>
			</g>
			<path class="st0" d="M56.29,7.43c0.09,0,1.43,0.05,1.43-1.24V1.6h-3.11v1.07h-0.75V1.84h-6.2v5.59h6.2v-1h0.75v1
				C54.61,7.43,56.2,7.43,56.29,7.43z M50.91,5.83h-0.48V3.29h0.48V5.83z M54.61,5.03h-0.75V4.18h0.75V5.03z"/>
			<path class="st0" d="M57.12,8.24c-0.39-0.35-0.97-0.53-1.71-0.53h-5.47c-0.71,0-1.27,0.18-1.68,0.53
				c-0.42,0.35-0.62,0.96-0.62,1.83c0,0.84,0.21,1.42,0.63,1.77c0.42,0.34,0.98,0.52,1.68,0.52h5.47c0.71,0,1.28-0.17,1.69-0.52
				c0.41-0.34,0.62-0.93,0.62-1.77C57.71,9.2,57.51,8.59,57.12,8.24z M54.8,10.26h-4.29V9.8h4.29V10.26z"/>
		</g>
	</g>
</g>
</svg>
